# xmcd CD database file
#
# Track frame offsets:
#	150
#	18748
#	25223
#	44685
#	64695
#	84120
#	85634
#	103673
#	121259
#	133494
#	150721
#	172841
#
# Disc length: 2559 seconds
#
# Revision: 0
# Processed by: cddbd v1.5.1PL2 Copyright (c) Steve Scherf et al.
# Submitted via: CDex 1.60beta1
#
DISCID=9409fd0c
DTITLE=趣味工房にんじんわいん - Symphony of Histoire
DYEAR=2004
DGENRE=Game
TTITLE0=紡がれる想い（届かない想い）
TTITLE1=鏡の中の英雄（鏡の中の英雄）
TTITLE2=追い落された龍（会議室の椅子の数）
TTITLE3=戦いの刻（生きるって厳しい）
TTITLE4=生の証と死の印（異端礼拝塔）
TTITLE5=おやすみ（おやすみ）
TTITLE6=王妃の遺言（王妃の遺言）
TTITLE7=妖月輪廻（古城の夢跡）
TTITLE8=恐怖の覚醒（恐怖との対峙）
TTITLE9=葬送曲（天と地の一線）
TTITLE10=義務の代償（義務の代償）
TTITLE11=魔将との死闘（十二悪魔将との死闘）
EXTD=YEAR: 2004
EXTT0=
EXTT1=
EXTT2=
EXTT3=
EXTT4=
EXTT5=
EXTT6=
EXTT7=
EXTT8=
EXTT9=
EXTT10=
EXTT11=
PLAYORDER=
